<svg id="Layer_1" data-name="Layer 1" xmlns="http://www.w3.org/2000/svg" viewBox="0 0 380.34 380.34"><defs><style>.cls-1{fill:#666766;}.cls-2{fill:#fff;}.cls-3,.cls-4,.cls-5{fill:none;stroke:#6c6c6c;stroke-miterlimit:10;}.cls-3{stroke-width:4px;}.cls-4{stroke-width:3px;}</style></defs><title>icon_glasses_whiteongrey</title><circle class="cls-1" cx="190.17" cy="190.17" r="190.17"/><polygon class="cls-2" points="101.53 236.8 101.53 336.28 278.81 336.28 278.81 236.8 256.75 229.79 251.13 210.75 192.72 269.59 128.7 210.75 123.51 228.49 101.53 236.8"/><ellipse class="cls-2" cx="189.48" cy="129.46" rx="80.18" ry="97.25"/><rect class="cls-3" x="134.98" y="118.86" width="46.54" height="27.5" rx="7.49" ry="7.49"/><rect class="cls-3" x="198.46" y="118.86" width="46.54" height="27.5" rx="7.49" ry="7.49"/><path class="cls-4" d="M191.08,144.48s8.47-11.67,16.94,0" transform="translate(-9.56 -9.38)"/><path class="cls-5" d="M277.65,119.63" transform="translate(-9.56 -9.38)"/><path class="cls-5" d="M254.56,123" transform="translate(-9.56 -9.38)"/><line class="cls-4" x1="245" y1="132.61" x2="267.24" y2="124.69"/><line class="cls-4" x1="134.98" y1="132.61" x2="112.74" y2="124.69"/><path class="cls-5" d="M155.06,86.44c0,12.55,52.79,22.7,118,22.7" transform="translate(-9.56 -9.38)"/><path class="cls-5" d="M155.06,86.44c0,15.17-15,27.45-33.53,27.45" transform="translate(-9.56 -9.38)"/></svg>